<mxfile host="app.diagrams.net" agent="Mozilla/5.0 (Windows NT 10.0; Win64; x64) AppleWebKit/537.36 (KHTML, like Gecko) Chrome/131.0.0.0 Safari/537.36 Edg/131.0.0.0" version="25.0.3">
  <diagram id="C5RBs43oDa-KdzZeNtuy" name="Page-1">
    <mxGraphModel dx="2073" dy="681" grid="1" gridSize="10" guides="1" tooltips="1" connect="1" arrows="1" fold="1" page="1" pageScale="1" pageWidth="827" pageHeight="1169" math="0" shadow="0">
      <root>
        <mxCell id="WIyWlLk6GJQsqaUBKTNV-0" />
        <mxCell id="WIyWlLk6GJQsqaUBKTNV-1" parent="WIyWlLk6GJQsqaUBKTNV-0" />
        <mxCell id="mvioNwK95yMqdUQ73LqQ-36" value="" style="swimlane;fontFamily=Sarabun;fontSource=https%3A%2F%2Ffonts.googleapis.com%2Fcss%3Ffamily%3DSarabun;" parent="WIyWlLk6GJQsqaUBKTNV-1" vertex="1">
          <mxGeometry x="-660" y="170" width="1350" height="1670" as="geometry" />
        </mxCell>
        <mxCell id="pXdczCPLqUhGzNIIeVMN-3" style="edgeStyle=orthogonalEdgeStyle;rounded=0;orthogonalLoop=1;jettySize=auto;html=1;" parent="mvioNwK95yMqdUQ73LqQ-36" source="mvioNwK95yMqdUQ73LqQ-35" edge="1">
          <mxGeometry relative="1" as="geometry">
            <mxPoint x="320" y="130" as="targetPoint" />
          </mxGeometry>
        </mxCell>
        <mxCell id="mvioNwK95yMqdUQ73LqQ-35" value="&lt;font data-font-src=&quot;https://fonts.googleapis.com/css?family=Sarabun&quot; face=&quot;Sarabun&quot;&gt;Start&lt;/font&gt;" style="ellipse;whiteSpace=wrap;html=1;" parent="mvioNwK95yMqdUQ73LqQ-36" vertex="1">
          <mxGeometry x="255" y="40" width="130" height="30" as="geometry" />
        </mxCell>
        <mxCell id="pXdczCPLqUhGzNIIeVMN-4" style="edgeStyle=orthogonalEdgeStyle;rounded=0;orthogonalLoop=1;jettySize=auto;html=1;" parent="mvioNwK95yMqdUQ73LqQ-36" source="pXdczCPLqUhGzNIIeVMN-2" edge="1">
          <mxGeometry relative="1" as="geometry">
            <mxPoint x="320" y="310" as="targetPoint" />
          </mxGeometry>
        </mxCell>
        <mxCell id="pXdczCPLqUhGzNIIeVMN-2" value="Declare number" style="rounded=0;whiteSpace=wrap;html=1;" parent="mvioNwK95yMqdUQ73LqQ-36" vertex="1">
          <mxGeometry x="260" y="130" width="120" height="60" as="geometry" />
        </mxCell>
        <mxCell id="pXdczCPLqUhGzNIIeVMN-6" style="edgeStyle=orthogonalEdgeStyle;rounded=0;orthogonalLoop=1;jettySize=auto;html=1;" parent="mvioNwK95yMqdUQ73LqQ-36" source="pXdczCPLqUhGzNIIeVMN-5" edge="1">
          <mxGeometry relative="1" as="geometry">
            <mxPoint x="320" y="460.0000000000001" as="targetPoint" />
          </mxGeometry>
        </mxCell>
        <mxCell id="pXdczCPLqUhGzNIIeVMN-5" value="Read number" style="shape=parallelogram;perimeter=parallelogramPerimeter;whiteSpace=wrap;html=1;fixedSize=1;" parent="mvioNwK95yMqdUQ73LqQ-36" vertex="1">
          <mxGeometry x="235" y="310" width="170" height="70" as="geometry" />
        </mxCell>
        <mxCell id="pXdczCPLqUhGzNIIeVMN-15" style="edgeStyle=orthogonalEdgeStyle;rounded=0;orthogonalLoop=1;jettySize=auto;html=1;" parent="mvioNwK95yMqdUQ73LqQ-36" source="pXdczCPLqUhGzNIIeVMN-7" edge="1">
          <mxGeometry relative="1" as="geometry">
            <mxPoint x="320" y="660" as="targetPoint" />
          </mxGeometry>
        </mxCell>
        <mxCell id="pXdczCPLqUhGzNIIeVMN-7" value="sumSerie(number)" style="shape=process;whiteSpace=wrap;html=1;backgroundOutline=1;" parent="mvioNwK95yMqdUQ73LqQ-36" vertex="1">
          <mxGeometry x="215" y="460" width="210" height="60" as="geometry" />
        </mxCell>
        <mxCell id="pXdczCPLqUhGzNIIeVMN-9" style="edgeStyle=orthogonalEdgeStyle;rounded=0;orthogonalLoop=1;jettySize=auto;html=1;" parent="mvioNwK95yMqdUQ73LqQ-36" source="pXdczCPLqUhGzNIIeVMN-8" edge="1">
          <mxGeometry relative="1" as="geometry">
            <mxPoint x="665" y="140" as="targetPoint" />
          </mxGeometry>
        </mxCell>
        <mxCell id="pXdczCPLqUhGzNIIeVMN-8" value="sumSerie()" style="ellipse;whiteSpace=wrap;html=1;" parent="mvioNwK95yMqdUQ73LqQ-36" vertex="1">
          <mxGeometry x="600" y="50" width="130" height="30" as="geometry" />
        </mxCell>
        <mxCell id="pXdczCPLqUhGzNIIeVMN-20" value="&lt;font data-font-src=&quot;https://fonts.googleapis.com/css?family=Sarabun&quot; face=&quot;Sarabun&quot;&gt;End&lt;/font&gt;" style="ellipse;whiteSpace=wrap;html=1;" parent="mvioNwK95yMqdUQ73LqQ-36" vertex="1">
          <mxGeometry x="254" y="830" width="130" height="30" as="geometry" />
        </mxCell>
        <mxCell id="x3omIHjc2DhOID6rrvAp-4" style="edgeStyle=orthogonalEdgeStyle;rounded=0;orthogonalLoop=1;jettySize=auto;html=1;" edge="1" parent="mvioNwK95yMqdUQ73LqQ-36" source="x3omIHjc2DhOID6rrvAp-3">
          <mxGeometry relative="1" as="geometry">
            <mxPoint x="665" y="260" as="targetPoint" />
          </mxGeometry>
        </mxCell>
        <mxCell id="x3omIHjc2DhOID6rrvAp-3" value="Declare sum = 1, factorial = 1" style="rounded=0;whiteSpace=wrap;html=1;" vertex="1" parent="mvioNwK95yMqdUQ73LqQ-36">
          <mxGeometry x="605" y="140" width="120" height="60" as="geometry" />
        </mxCell>
        <mxCell id="x3omIHjc2DhOID6rrvAp-9" style="edgeStyle=orthogonalEdgeStyle;rounded=0;orthogonalLoop=1;jettySize=auto;html=1;" edge="1" parent="mvioNwK95yMqdUQ73LqQ-36" source="x3omIHjc2DhOID6rrvAp-5">
          <mxGeometry relative="1" as="geometry">
            <mxPoint x="665" y="550" as="targetPoint" />
          </mxGeometry>
        </mxCell>
        <mxCell id="x3omIHjc2DhOID6rrvAp-18" style="edgeStyle=orthogonalEdgeStyle;rounded=0;orthogonalLoop=1;jettySize=auto;html=1;" edge="1" parent="mvioNwK95yMqdUQ73LqQ-36" source="x3omIHjc2DhOID6rrvAp-5">
          <mxGeometry relative="1" as="geometry">
            <mxPoint x="670.0285714285715" y="830" as="targetPoint" />
            <Array as="points">
              <mxPoint x="900" y="440" />
              <mxPoint x="900" y="790" />
            </Array>
          </mxGeometry>
        </mxCell>
        <mxCell id="x3omIHjc2DhOID6rrvAp-5" value="i &amp;lt;= number?" style="rhombus;whiteSpace=wrap;html=1;" vertex="1" parent="mvioNwK95yMqdUQ73LqQ-36">
          <mxGeometry x="625" y="400" width="80" height="80" as="geometry" />
        </mxCell>
        <mxCell id="x3omIHjc2DhOID6rrvAp-7" style="edgeStyle=orthogonalEdgeStyle;rounded=0;orthogonalLoop=1;jettySize=auto;html=1;entryX=0.5;entryY=0;entryDx=0;entryDy=0;" edge="1" parent="mvioNwK95yMqdUQ73LqQ-36" source="x3omIHjc2DhOID6rrvAp-6" target="x3omIHjc2DhOID6rrvAp-5">
          <mxGeometry relative="1" as="geometry" />
        </mxCell>
        <mxCell id="x3omIHjc2DhOID6rrvAp-6" value="i = 2" style="rounded=0;whiteSpace=wrap;html=1;" vertex="1" parent="mvioNwK95yMqdUQ73LqQ-36">
          <mxGeometry x="605" y="260" width="120" height="60" as="geometry" />
        </mxCell>
        <mxCell id="x3omIHjc2DhOID6rrvAp-10" value="Yes" style="text;html=1;align=center;verticalAlign=middle;resizable=0;points=[];autosize=1;strokeColor=none;fillColor=none;" vertex="1" parent="mvioNwK95yMqdUQ73LqQ-36">
          <mxGeometry x="625" y="480" width="40" height="30" as="geometry" />
        </mxCell>
        <mxCell id="x3omIHjc2DhOID6rrvAp-11" value="No" style="text;html=1;align=center;verticalAlign=middle;resizable=0;points=[];autosize=1;strokeColor=none;fillColor=none;" vertex="1" parent="mvioNwK95yMqdUQ73LqQ-36">
          <mxGeometry x="710" y="400" width="40" height="30" as="geometry" />
        </mxCell>
        <mxCell id="x3omIHjc2DhOID6rrvAp-13" style="edgeStyle=orthogonalEdgeStyle;rounded=0;orthogonalLoop=1;jettySize=auto;html=1;" edge="1" parent="mvioNwK95yMqdUQ73LqQ-36" source="x3omIHjc2DhOID6rrvAp-12">
          <mxGeometry relative="1" as="geometry">
            <mxPoint x="540" y="520" as="targetPoint" />
          </mxGeometry>
        </mxCell>
        <mxCell id="x3omIHjc2DhOID6rrvAp-12" value="factorial *= i and&lt;div&gt;sum += ( i-1 ) + factorial&lt;/div&gt;" style="rounded=0;whiteSpace=wrap;html=1;" vertex="1" parent="mvioNwK95yMqdUQ73LqQ-36">
          <mxGeometry x="605" y="550" width="120" height="60" as="geometry" />
        </mxCell>
        <mxCell id="x3omIHjc2DhOID6rrvAp-16" style="edgeStyle=orthogonalEdgeStyle;rounded=0;orthogonalLoop=1;jettySize=auto;html=1;" edge="1" parent="mvioNwK95yMqdUQ73LqQ-36" source="x3omIHjc2DhOID6rrvAp-14">
          <mxGeometry relative="1" as="geometry">
            <mxPoint x="660" y="370" as="targetPoint" />
            <Array as="points">
              <mxPoint x="540" y="370" />
            </Array>
          </mxGeometry>
        </mxCell>
        <mxCell id="x3omIHjc2DhOID6rrvAp-14" value="i++" style="rounded=0;whiteSpace=wrap;html=1;" vertex="1" parent="mvioNwK95yMqdUQ73LqQ-36">
          <mxGeometry x="510" y="490" width="60" height="30" as="geometry" />
        </mxCell>
        <mxCell id="x3omIHjc2DhOID6rrvAp-20" style="edgeStyle=orthogonalEdgeStyle;rounded=0;orthogonalLoop=1;jettySize=auto;html=1;" edge="1" parent="mvioNwK95yMqdUQ73LqQ-36" source="x3omIHjc2DhOID6rrvAp-19">
          <mxGeometry relative="1" as="geometry">
            <mxPoint x="320" y="830" as="targetPoint" />
          </mxGeometry>
        </mxCell>
        <mxCell id="x3omIHjc2DhOID6rrvAp-19" value="Display sum" style="shape=parallelogram;perimeter=parallelogramPerimeter;whiteSpace=wrap;html=1;fixedSize=1;" vertex="1" parent="mvioNwK95yMqdUQ73LqQ-36">
          <mxGeometry x="260" y="660" width="120" height="60" as="geometry" />
        </mxCell>
        <mxCell id="x3omIHjc2DhOID6rrvAp-21" value="return sum" style="ellipse;whiteSpace=wrap;html=1;" vertex="1" parent="mvioNwK95yMqdUQ73LqQ-36">
          <mxGeometry x="605" y="830" width="130" height="30" as="geometry" />
        </mxCell>
      </root>
    </mxGraphModel>
  </diagram>
</mxfile>
